<svg width="28" height="28" viewBox="0 0 28 28" fill="none" xmlns="http://www.w3.org/2000/svg">
<path d="M27.0085 10.9661H25.91V10.9095H13.6369V16.3642H21.3437C20.2194 19.5396 17.1981 21.819 13.6369 21.819C9.11829 21.819 5.45474 18.1554 5.45474 13.6369C5.45474 9.11829 9.11829 5.45474 13.6369 5.45474C15.7226 5.45474 17.6202 6.24159 19.065 7.52687L22.9222 3.66968C20.4867 1.39982 17.2288 0 13.6369 0C6.1059 0 0 6.1059 0 13.6369C0 21.1678 6.1059 27.2737 13.6369 27.2737C21.1678 27.2737 27.2737 21.1678 27.2737 13.6369C27.2737 12.7225 27.1796 11.83 27.0085 10.9661Z" fill="#FFC107"/>
<path d="M1.57227 7.28958L6.05266 10.5754C7.26497 7.57391 10.201 5.45474 13.6368 5.45474C15.7226 5.45474 17.6201 6.24159 19.0649 7.52687L22.9221 3.66968C20.4866 1.39982 17.2287 0 13.6368 0C8.39888 0 3.85644 2.95715 1.57227 7.28958Z" fill="#FF3D00"/>
<path d="M13.6383 27.274C17.1607 27.274 20.3612 25.926 22.7811 23.7339L18.5605 20.1624C17.1456 21.2391 15.4162 21.8212 13.6383 21.8193C10.0913 21.8193 7.07961 19.5576 5.94503 16.4014L1.49805 19.8276C3.75495 24.2439 8.3383 27.274 13.6383 27.274Z" fill="#4CAF50"/>
<path d="M27.0083 10.9658H25.9099V10.9092H13.6367V16.3639H21.3436C20.8058 17.8752 19.837 19.1957 18.5569 20.1625L18.5589 20.1611L22.7796 23.7326C22.4809 24.004 27.2736 20.455 27.2736 13.6366C27.2736 12.7222 27.1795 11.8297 27.0083 10.9658Z" fill="#1976D2"/>
</svg>
